<?xml version="1.0" encoding="UTF-8"?>
<svg xmlns="http://www.w3.org/2000/svg" viewBox="0 0 576 576">
  <defs>
    <style>
      .cls-1 {
        fill: #1eaaad;
      }

      .cls-1, .cls-2 {
        stroke-width: 0px;
      }

      .cls-2 {
        fill: #1c1c1c;
      }
    </style>
  </defs>
  <g id="Layer_4" data-name="Layer 4">
    <g>
      <path class="cls-1" d="m238.79421459,132.34415211l42.57709941-42.57709941c3.66092219-3.66092219,9.59644981-3.66092219,13.257372,0l42.57709941,42.57709941c1.75803683,1.75803683,4.14244647,2.74569164,6.628686,2.74569164h.00002651c8.35167851,0,12.53421451-10.09753513,6.628686-16.00306364l-55.83449792-55.83449792c-3.66092219-3.66092219-9.59644981-3.66092219-13.257372,0l-55.83449792,55.83449792c-5.90552851,5.90552851-1.72299251,16.00306364,6.628686,16.00306364h.00002651c2.48623953,0,4.87064917-.98765481,6.628686-2.74569164Z"/>
      <path class="cls-1" d="m475.54970386,331.82669994l37.30902153-37.30902153c3.5996144-3.5996144,3.5996144-9.43574244,0-13.03535684l-37.30902153-37.30902153c-5.80663132-5.80663132-15.73506763-1.69413834-15.73506763,6.51767842v.4439958c0,2.44460361.971115,4.78908263,2.6997108,6.51767842l24.05165375,24.05165375c3.5996144,3.5996144,3.5996144,9.43574244,0,13.03535684l-24.05165375,24.05165375c-1.72859579,1.72859579-2.6997108,4.07307481-2.6997108,6.51767842v.00002607c0,8.21181676,9.92843632,12.32430974,15.73506763,6.51767842Z"/>
      <path class="cls-1" d="m113.48565297,318.79131704l-24.05165375-24.05165375c-3.5996144-3.5996144-3.5996144-9.43574244,0-13.03535684l24.05165375-24.05165375c1.72859579-1.72859579,2.6997108-4.07307481,2.6997108-6.51767842v-.4439958c0-8.21181676-9.92843632-12.32430974-15.73506763-6.51767842l-37.30902153,37.30902153c-3.5996144,3.5996144-3.5996144,9.43574244,0,13.03535684l37.30902153,37.30902153c5.80663132,5.80663132,15.73506763,1.69413834,15.73506763-6.51767842v-.00002607c0-2.44460361-.971115-4.78908263-2.6997108-6.51767842Z"/>
      <path class="cls-1" d="m337.6957907,443.60981233l-43.17809702,43.17809702c-3.59962282,3.59962282-9.43576453,3.59962282-13.03538736,0l-43.17809702-43.17809702c-1.72859984-1.72859984-4.07308434-2.69971712-6.51769368-2.69971712h-.00002607c-8.21183599,0-12.32433859,9.92845956-6.51769368,15.73510447l56.21351044,56.21351044c3.59962282,3.59962282,9.43576453,3.59962282,13.03538736,0l56.21351044-56.21351044c5.80664491-5.80664491,1.69414231-15.73510447-6.51769368-15.73510447h-.00002607c-2.44460934,0-4.78909384.97111728-6.51769368,2.69971712Z"/>
    </g>
  </g>
  <g id="Layer_1" data-name="Layer 1">
    <g>
      <path class="cls-2" d="m187.88330078,313.73339844v-63.89599609h12.04101562v63.89599609h-12.04101562Zm6.06445312,0v-11.6015625h15.33691406c3.95507812,0,7.01611328-.95898438,9.18457031-2.87792969,2.16796875-1.91894531,3.25195312-4.60742188,3.25195312-8.06445312v-18.80810547c0-3.48632812-1.08398438-6.18115234-3.25195312-8.0859375-2.16845703-1.90429688-5.22949219-2.85644531-9.18457031-2.85644531h-15.33691406v-11.6015625h15.07324219c8.02685547,0,14.23095703,1.99951172,18.61083984,5.99853516,4.37939453,3.99902344,6.56982422,9.63134766,6.56982422,16.89697266v18.10498047c0,4.54199219-.93798828,8.53320312-2.8125,11.97558594-1.875,3.44238281-4.68017578,6.12304688-8.41552734,8.04199219s-8.40087891,2.87792969-13.99658203,2.87792969h-15.02929688Z"/>
      <path class="cls-2" d="m243.81689453,308.33339844v-53.09599609c0-2.98233765,2.41766235-5.4,5.4-5.4h6.64101563v63.89599609h-6.64101563c-2.98233765,0-5.4-2.41766235-5.4-5.4Z"/>
      <path class="cls-2" d="m250.93258427,261.43896484v-11.6015625h30.67536001c2.76787699,0,5.01168462,2.41766235,5.01168462,5.4v.8015625c0,2.98233765-2.24380763,5.4-5.01168462,5.4h-30.67536001Z"/>
      <path class="cls-2" d="m248.16748047,287.80615234v-11.6015625h28.21816406c2.98233765,0,5.4,2.41766235,5.4,5.4v.8015625c0,2.98233765-2.41766235,5.4-5.4,5.4h-28.21816406Z"/>
      <path class="cls-2" d="m248.16748047,313.73339844v-11.6015625h33.05214844c2.98233765,0,5.4,2.41766235,5.4,5.4v.8015625c0,2.98233765-2.41766235,5.4-5.4,5.4h-33.05214844Z"/>
      <path class="cls-2" d="m315.43945312,314.39257812c-3.046875,0-6.02832031-.30761719-8.94238281-.92285156-2.91601562-.61523438-5.64746094-1.515625-8.19628906-2.70214844-.87114048-.40553091-1.7131915-.83935274-2.52615308-1.30142649-2.55032406-1.44956152-3.38971665-4.733974-1.95261334-7.29133895l.32878032-.58507364c1.41519894-2.51838551,4.58812289-3.52875647,7.13948957-2.17392005,1.87837529.99746198,3.91975708,1.7974217,6.12414692,2.39960686,2.67384369.73042843,5.44807772,1.07865109,8.21984942,1.0629224,3.83189863-.02174449,6.81382777-.68759242,8.94579706-1.99846544,2.16796875-1.33300781,3.25195312-3.21484375,3.25195312-5.64746094v-.04394531c0-1.84570312-.54199219-3.25878906-1.62597656-4.24023438s-2.51269531-1.70703125-4.28515625-2.17529297-3.69824219-.86376953-5.77832031-1.18652344c-2.49023438-.38037109-5.00976562-.85693359-7.55859375-1.42822266s-4.89257812-1.47900391-7.03125-2.72460938c-2.13867188-1.24511719-3.86035156-3.02490234-5.16308594-5.33935547-1.3046875-2.31396484-1.95605469-5.40527344-1.95605469-9.27246094v-.04394531c0-6.24023438,2.05078125-11.06689453,6.15234375-14.47998047,4.1015625-3.41259766,9.90234375-5.11962891,17.40234375-5.11962891,3.45703125,0,6.97265625.57861328,10.546875,1.73583984,1.83368025.59394206,3.60181768,1.31691353,5.30441227,2.16891442,2.67370331,1.33795655,3.76540806,4.58646445,2.42833535,7.26060987l-.28320171.56640342c-1.32318796,2.64637592-4.51812911,3.70814758-7.18850964,2.43409904-1.01504166-.48428017-2.04700177-.9069193-3.09599721-1.26791737-2.6796875-.92285156-5.25097656-1.38427734-7.71191406-1.38427734-3.69140625,0-6.54785156.60839844-8.56933594,1.82373047-2.02148438,1.21582031-3.03222656,2.92236328-3.03222656,5.11962891v.04394531c0,2.05078125.60058594,3.60351562,1.80175781,4.65820312s2.76855469,1.83886719,4.70214844,2.35107422c1.93359375.51269531,4.01367188.98876953,6.24023438,1.42822266,2.4609375.46875,4.90722656,1.04785156,7.33886719,1.73583984,2.43164062.68847656,4.65820312,1.67724609,6.6796875,2.96630859,2.02148438,1.28955078,3.6328125,3.06152344,4.83398438,5.31738281,1.20117188,2.25634766,1.80175781,5.18505859,1.80175781,8.78857422v.08789062c0,6.15234375-2.12402344,10.92089844-6.37207031,14.3046875s-10.23925781,5.07519531-17.97363281,5.07519531Z"/>
      <path class="cls-2" d="m366.84667969,314.39257812c-3.046875,0-6.02832031-.30761719-8.94238281-.92285156-2.91601562-.61523438-5.64746094-1.515625-8.19628906-2.70214844-.87114048-.40553091-1.7131915-.83935274-2.52615308-1.30142649-2.55032406-1.44956152-3.38971665-4.733974-1.95261334-7.29133895l.32878032-.58507364c1.41519894-2.51838551,4.58812289-3.52875647,7.13948957-2.17392005,1.87837529.99746198,3.91975708,1.7974217,6.12414692,2.39960686,2.67384369.73042843,5.44807772,1.07865109,8.21984942,1.0629224,3.83189863-.02174449,6.81382777-.68759242,8.94579706-1.99846544,2.16796875-1.33300781,3.25195312-3.21484375,3.25195312-5.64746094v-.04394531c0-1.84570312-.54199219-3.25878906-1.62597656-4.24023438s-2.51269531-1.70703125-4.28515625-2.17529297-3.69824219-.86376953-5.77832031-1.18652344c-2.49023438-.38037109-5.00976562-.85693359-7.55859375-1.42822266s-4.89257812-1.47900391-7.03125-2.72460938c-2.13867188-1.24511719-3.86035156-3.02490234-5.16308594-5.33935547-1.3046875-2.31396484-1.95605469-5.40527344-1.95605469-9.27246094v-.04394531c0-6.24023438,2.05078125-11.06689453,6.15234375-14.47998047,4.1015625-3.41259766,9.90234375-5.11962891,17.40234375-5.11962891,3.45703125,0,6.97265625.57861328,10.546875,1.73583984,1.83368025.59394206,3.60181768,1.31691353,5.30441227,2.16891442,2.67370331,1.33795655,3.76540806,4.58646445,2.42833535,7.26060987l-.28173232.56346464c-1.32400213,2.64800426-4.5207782,3.71016675-7.19294055,2.43562505-1.01408738-.48368942-2.04506042-.90585762-3.09303569-1.26650461-2.6796875-.92285156-5.25097656-1.38427734-7.71191406-1.38427734-3.69140625,0-6.54785156.60839844-8.56933594,1.82373047-2.02148438,1.21582031-3.03222656,2.92236328-3.03222656,5.11962891v.04394531c0,2.05078125.60058594,3.60351562,1.80175781,4.65820312s2.76855469,1.83886719,4.70214844,2.35107422c1.93359375.51269531,4.01367188.98876953,6.24023438,1.42822266,2.4609375.46875,4.90722656,1.04785156,7.33886719,1.73583984,2.43164062.68847656,4.65820312,1.67724609,6.6796875,2.96630859,2.02148438,1.28955078,3.6328125,3.06152344,4.83398438,5.31738281,1.20117188,2.25634766,1.80175781,5.18505859,1.80175781,8.78857422v.08789062c0,6.15234375-2.12402344,10.92089844-6.37207031,14.3046875s-10.23925781,5.07519531-17.97363281,5.07519531Z"/>
    </g>
  </g>
  <g id="Layer_3" data-name="Layer 3">
    <g>
      <path class="cls-2" d="m199.56176758,275.77526855v-54.15887451c4.77423096-2.21014404,8.09344482-7.03051758,8.09344482-12.6373291,0-7.69476318-6.23779297-13.93261719-13.93255615-13.93261719s-13.93261719,6.237854-13.93261719,13.93261719c0,5.60675049,3.31921387,10.42712402,8.09344482,12.63726807v54.15893555h11.67828369Zm-5.83911133-72.27581787c3.02630615,0,5.47961426,2.45330811,5.47961426,5.47961426s-2.45330811,5.47955322-5.47961426,5.47955322-5.47961426-2.45324707-5.47961426-5.47955322,2.45330811-5.47961426,5.47961426-5.47961426Z"/>
      <path class="cls-2" d="m148.31616211,280.08984375c3.17181396,0,5.74310303-2.57122803,5.74310303-5.74304199v-99.48010254h61.6920166c3.17181396,0,5.74310303-2.57128906,5.74310303-5.74310303,0-3.171875-2.57128906-5.74310303-5.74310303-5.74310303h-67.43511963c-3.171875,0-5.74310303,2.57122803-5.74310303,5.74310303v105.22320557c0,3.17181396,2.57122803,5.74304199,5.74310303,5.74304199Z"/>
      <path class="cls-2" d="m186.21350098,342.86505127c-3.27648926,0-5.93261719,2.65612793-5.93261719,5.93261719s2.65612793,5.93255615,5.93261719,5.93255615h34.65167236c3.27648926,0,5.93255615-2.65606689,5.93255615-5.93255615s-2.65606689-5.93261719-5.93255615-5.93261719h-34.65167236Z"/>
      <path class="cls-2" d="m220.86517334,369.57299805h-32.67407227c-2.2298584-4.72363281-7.02233887-8-12.59228516-8-7.69476318,0-13.93261719,6.237854-13.93261719,13.93261719,0,7.69470215,6.237854,13.93255615,13.93261719,13.93255615,5.56994629,0,10.36242676-3.27642822,12.59228516-8h32.67407227c3.27648926,0,5.93255615-2.65606689,5.93255615-5.93255615s-2.65606689-5.93261719-5.93255615-5.93261719Zm-45.26635742,11.41217041c-3.02630615,0-5.47961426-2.45324707-5.47961426-5.47955322s2.45330811-5.47961426,5.47961426-5.47961426,5.47961426,2.45330811,5.47961426,5.47961426-2.45330811,5.47955322-5.47961426,5.47955322Z"/>
      <path class="cls-2" d="m284.68536377,175.05615234h24.809021v34.11236572c0,3.27648926,2.65612793,5.93261719,5.93255615,5.93261719h.00006104c3.27642822,0,5.93255615-2.65612793,5.93255615-5.93261719v-40.04492188c0-3.27648926-2.65612793-5.93261719-5.93255615-5.93261719h-30.74163818c-3.27648926,0-5.93255615,2.65612793-5.93255615,5.93261719s2.65606689,5.93255615,5.93255615,5.93255615Z"/>
      <path class="cls-2" d="m341.17004395,174.86669922h73.83026123c2.18933105,4.82629395,7.03887939,8.18945312,12.68359375,8.18945312,7.69476318,0,13.93255615-6.237854,13.93255615-13.93255615,0-7.69476318-6.23779297-13.93261719-13.93255615-13.93261719-5.64477539,0-10.49432373,3.36315918-12.68359375,8.18951416h-73.83026123c-3.17181396,0-5.74310303,2.57122803-5.74310303,5.74310303,0,3.17181396,2.57128906,5.74310303,5.74310303,5.74310303Zm86.51385498-11.22271729c3.02630615,0,5.47961426,2.45330811,5.47961426,5.47961426s-2.45330811,5.47955322-5.47961426,5.47955322-5.47961426-2.45324707-5.47961426-5.47955322,2.45330811-5.47961426,5.47961426-5.47961426Z"/>
      <path class="cls-2" d="m427.68383789,342.57299805c-3.17181396,0-5.74310303,2.57128906-5.74310303,5.74310303v22.08044434h-72.54595947c-3.17181396,0-5.74310303,2.57122803-5.74310303,5.74310303,0,3.17181396,2.57128906,5.74310303,5.74310303,5.74310303h78.2890625c3.171875,0,5.74310303-2.57128906,5.74310303-5.74310303,0-.07507324-.00836182-.14794922-.01123047-.22229004.00286865-.07434082.01123047-.1472168.01123047-.22229004v-27.37896729c0-3.17181396-2.57122803-5.74310303-5.74310303-5.74310303Z"/>
      <path class="cls-2" d="m427.68383789,397.54901123h-77.10144043c-2.18927002-4.82629395-7.03881836-8.18945312-12.68353271-8.18945312-7.69476318,0-13.93261719,6.237854-13.93261719,13.93261719,0,7.69470215,6.237854,13.93255615,13.93261719,13.93255615,5.64477539,0,10.4942627-3.36322021,12.68353271-8.18951416h77.10144043c3.171875,0,5.74310303-2.57128906,5.74310303-5.74310303s-2.57122803-5.74310303-5.74310303-5.74310303Zm-89.78497314,11.22271729c-3.02630615,0-5.47961426-2.45324707-5.47961426-5.47955322s2.45330811-5.47961426,5.47961426-5.47961426,5.47961426,2.45330811,5.47961426,5.47961426-2.45330811,5.47955322-5.47961426,5.47955322Z"/>
      <path class="cls-2" d="m243.78649902,181.72857666v27.43994141c0,.8190918.16595459,1.5994873.46618652,2.30926514.90057373,2.1293335,3.0090332,3.62335205,5.46636963,3.62335205h30.74163818c3.27648926,0,5.93255615-2.65612793,5.93255615-5.93261719s-2.65606689-5.93255615-5.93255615-5.93255615h-24.809021v-21.53277588c4.70928955-2.23522949,7.97357178-7.0201416,7.97357178-12.57958984,0-7.69476318-6.23779297-13.93261719-13.93255615-13.93261719s-13.93261719,6.237854-13.93261719,13.93261719c0,5.58032227,3.28851318,10.38067627,8.02642822,12.60498047Zm5.90618896-18.08459473c3.02630615,0,5.47961426,2.45330811,5.47961426,5.47961426s-2.45330811,5.47955322-5.47961426,5.47955322-5.47961426-2.45324707-5.47961426-5.47955322,2.45330811-5.47961426,5.47961426-5.47961426Z"/>
      <path class="cls-2" d="m160.99969482,313.73339844h36.85424805v-11.48620605h-36.85424805c-2.18927002-4.82635498-7.03875732-8.18951416-12.68353271-8.18951416-7.69476318,0-13.93261719,6.237854-13.93261719,13.93261719,0,7.69470215,6.237854,13.93255615,13.93261719,13.93255615,5.64471436,0,10.4942627-3.36315918,12.68353271-8.18945312Zm-18.16314697-5.74310303c0-3.02630615,2.45330811-5.47961426,5.47961426-5.47961426s5.47961426,2.45330811,5.47961426,5.47961426-2.45330811,5.47955322-5.47961426,5.47955322-5.47961426-2.45324707-5.47961426-5.47955322Z"/>
      <path class="cls-2" d="m295.92132568,389.35955811c-5.56994629,0-10.36248779,3.27636719-12.59234619,8h-129.26971436v-56.75140381c0-3.17181396-2.57128906-5.74310303-5.74310303-5.74310303h-.00006104c-3.17181396,0-5.74304199,2.57128906-5.74304199,5.74310303v62.87347412c0,3.17181396,2.57122803,5.74310303,5.74304199,5.74310303h.00006104c.03198242,0,.06286621-.00421143.09472656-.00476074.03186035.00048828.06274414.00476074.09472656.00476074h134.82336426c2.2298584,4.72357178,7.0223999,8,12.59234619,8,7.69476318,0,13.93255615-6.237854,13.93255615-13.93255615,0-7.69476318-6.23779297-13.93261719-13.93255615-13.93261719Zm0,19.41217041c-3.02630615,0-5.47961426-2.45324707-5.47961426-5.47955322s2.45330811-5.47961426,5.47961426-5.47961426,5.47961426,2.45330811,5.47961426,5.47961426-2.45330811,5.47955322-5.47961426,5.47955322Z"/>
      <path class="cls-2" d="m249.69268799,389.43817139c7.69476318,0,13.93255615-6.237854,13.93255615-13.93255615,0-5.55950928-3.26428223-10.34442139-7.97357178-12.57965088v-67.22937012h-11.86517334v67.20397949c-4.73791504,2.2243042-8.02642822,7.0246582-8.02642822,12.6050415,0,7.69470215,6.237854,13.93255615,13.93261719,13.93255615Zm0-8.45300293c-3.02630615,0-5.47961426-2.45324707-5.47961426-5.47955322s2.45330811-5.47961426,5.47961426-5.47961426,5.47961426,2.45330811,5.47961426,5.47961426-2.45330811,5.47955322-5.47961426,5.47955322Z"/>
      <path class="cls-2" d="m296.76208496,334.86505127c-7.69476318,0-13.93261719,6.237854-13.93261719,13.93261719,0,7.69470215,6.237854,13.93255615,13.93261719,13.93255615,5.56994629,0,10.36242676-3.27642822,12.59228516-8h92.18493652c3.27648926,0,5.93261719-2.65606689,5.93261719-5.93255615s-2.65612793-5.93261719-5.93261719-5.93261719h-92.18493652c-2.2298584-4.72363281-7.02233887-8-12.59228516-8Zm0,19.41217041c-3.02630615,0-5.47961426-2.45324707-5.47961426-5.47955322s2.45330811-5.47961426,5.47961426-5.47961426,5.47961426,2.45330811,5.47961426,5.47961426-2.45330811,5.47955322-5.47961426,5.47955322Z"/>
      <path class="cls-2" d="m433.42694092,295.30664062v-86.32757568c0-3.171875-2.57122803-5.74310303-5.74310303-5.74310303h-63.16882324c-2.18927002-4.82635498-7.03875732-8.18951416-12.68353271-8.18951416-7.69476318,0-13.93261719,6.237854-13.93261719,13.93261719,0,7.69470215,6.237854,13.93255615,13.93261719,13.93255615,5.64471436,0,10.4942627-3.36315918,12.68353271-8.18945312h57.42572021v80.58453369c-4.82629395,2.18933105-8.18945312,7.03887939-8.18945312,12.68359375,0,7.69470215,6.237854,13.93255615,13.93261719,13.93255615s13.93255615-6.237854,13.93255615-13.93255615c0-5.64477539-3.36315918-10.49438477-8.18951416-12.68365479Zm-81.59545898-80.84802246c-3.02630615,0-5.47961426-2.45324707-5.47961426-5.47955322s2.45330811-5.47961426,5.47961426-5.47961426,5.47961426,2.45330811,5.47961426,5.47961426-2.45330811,5.47955322-5.47961426,5.47955322Zm75.85241699,99.01123047c-3.02630615,0-5.47961426-2.45324707-5.47961426-5.47955322s2.45330811-5.47961426,5.47961426-5.47961426,5.47961426,2.45330811,5.47961426,5.47961426-2.45330811,5.47955322-5.47961426,5.47955322Z"/>
    </g>
  </g>
</svg>