<svg version="1.2" baseProfile="tiny-ps" xmlns="http://www.w3.org/2000/svg" viewBox="0 0 1335 564" width="1335" height="564">
	<title>ATCO-Black+Yellow_CMYK-ai</title>
	<style>
		tspan { white-space:pre }
		.shp0 { fill: #2c2e35 } 
		.shp1 { fill: #ffb22f } 
	</style>
	<g id="Layer 1">
		<g id="&lt;Group&gt;">
			<g id="&lt;Group&gt;">
				<g id="&lt;Group&gt;">
					<path id="&lt;Compound Path&gt;" fill-rule="evenodd" class="shp0" d="M1215.02 232.32C1199.92 317.98 1144.47 366.25 1059.19 366.25C992.13 366.25 935.97 317.29 951.07 231.53C965.01 152.55 1016.8 101.14 1105.92 101.14C1186.33 101.14 1226.74 165.84 1215.02 232.32ZM1033.49 232.32C1027.82 264.48 1030.52 304.69 1070.05 304.69C1100.48 304.69 1125.13 273.91 1132.47 232.32C1138.52 198.02 1130.96 162.69 1094.38 162.69C1062.93 162.69 1039.1 200.47 1033.49 232.32Z" />
					<path id="&lt;Path&gt;" class="shp0" d="M846.73 261.91C835.05 288.23 815.27 305.59 792.21 305.59C752.02 305.59 749.27 264.69 755.04 231.88C760.75 199.58 784.99 161.17 816.96 161.17C844.89 161.17 856.18 181.43 857.48 206.28L935.89 206.28C934.48 149.98 895.73 101.19 827.41 101.19C740.31 101.19 689.7 152.46 676.09 231.28C661.32 316.7 716.2 365.52 781.74 365.52C854.78 365.52 905.39 328.55 926.74 261.91L846.73 261.91Z" />
				</g>
				<path id="&lt;Path&gt;" class="shp0" d="M461.73 104.37L692.4 104.37L678.18 171.68L604.88 171.68L564.94 360.77L483.07 360.77L523.01 171.68L447.52 171.68L461.73 104.37Z" />
				<path id="&lt;Compound Path&gt;" fill-rule="evenodd" class="shp0" d="M173.08 360.95L327.63 104.54L406.56 104.54L453.24 360.95L373.72 360.95L367.99 322.75L279.09 322.75L257.12 360.95L173.08 360.95ZM349.42 194.9L307.22 269.33L360.36 269.33L349.42 194.9Z" />
			</g>
			<path id="&lt;Path&gt;" class="shp1" d="M1186.84 471.14L104.39 471.14L138.61 414.2L1221.05 414.2L1186.84 471.14Z" />
		</g>
	</g>
</svg>